<svg width="32" height="32" viewBox="0 0 32 32" fill="none" xmlns="http://www.w3.org/2000/svg">
  <defs>
    <linearGradient id="bg" x1="0%" y1="0%" x2="100%" y2="100%">
      <stop offset="0%" style="stop-color:#3B82F6;stop-opacity:1" />
      <stop offset="100%" style="stop-color:#8B5CF6;stop-opacity:1" />
    </linearGradient>
    <linearGradient id="screen" x1="0%" y1="0%" x2="100%" y2="100%">
      <stop offset="0%" style="stop-color:#1E293B;stop-opacity:1" />
      <stop offset="100%" style="stop-color:#334155;stop-opacity:1" />
    </linearGradient>
  </defs>

  <!-- Background with gradient -->
  <rect width="32" height="32" rx="8" fill="url(#bg)"/>

  <!-- Screen -->
  <rect x="6" y="8" width="20" height="12" rx="2" fill="url(#screen)"/>

  <!-- Camera lens -->
  <circle cx="16" cy="14" r="3" fill="#3B82F6" opacity="0.8"/>
  <circle cx="16" cy="14" r="1.5" fill="#1E293B"/>

  <!-- Play button -->
  <path d="M18 12l3 2-3 2v-4z" fill="#10B981"/>

  <!-- Live indicator -->
  <circle cx="24" cy="10" r="2" fill="#EF4444"/>
  <circle cx="24" cy="10" r="1" fill="white"/>

  <!-- Signal waves -->
  <path d="M4 6c0-1 1-1 2-1s2 0 2 1" stroke="white" stroke-width="1" fill="none" opacity="0.6"/>
  <path d="M4 4c0-1.5 1.5-1.5 3-1.5s3 0 3 1.5" stroke="white" stroke-width="1" fill="none" opacity="0.4"/>
</svg>
