<svg xmlns="http://www.w3.org/2000/svg" viewBox="0 0 32 32" width="32" height="32">
  <defs>
    <linearGradient id="bgGrad" x1="0%" y1="0%" x2="100%" y2="100%">
      <stop offset="0%" style="stop-color:#667eea;stop-opacity:1" />
      <stop offset="50%" style="stop-color:#764ba2;stop-opacity:1" />
      <stop offset="100%" style="stop-color:#f093fb;stop-opacity:1" />
    </linearGradient>
    <linearGradient id="playGrad" x1="0%" y1="0%" x2="100%" y2="100%">
      <stop offset="0%" style="stop-color:#ffffff;stop-opacity:1" />
      <stop offset="100%" style="stop-color:#f8f9fa;stop-opacity:1" />
    </linearGradient>
    <filter id="shadow" x="-50%" y="-50%" width="200%" height="200%">
      <feDropShadow dx="0" dy="2" stdDeviation="2" flood-color="#000000" flood-opacity="0.3"/>
    </filter>
    <filter id="glow" x="-50%" y="-50%" width="200%" height="200%">
      <feGaussianBlur stdDeviation="1" result="coloredBlur"/>
      <feMerge> 
        <feMergeNode in="coloredBlur"/>
        <feMergeNode in="SourceGraphic"/>
      </feMerge>
    </filter>
  </defs>
  
  <!-- Background with subtle border -->
  <rect width="32" height="32" rx="8" fill="url(#bgGrad)"/>
  <rect x="1" y="1" width="30" height="30" rx="7" fill="none" stroke="#ffffff" stroke-width="0.5" opacity="0.2"/>
  
  <!-- Main play button with shadow -->
  <g transform="translate(16, 16)" filter="url(#shadow)">
    <!-- Play button background -->
    <circle cx="0" cy="0" r="8" fill="url(#playGrad)"/>
    
    <!-- Play triangle with gradient -->
    <path d="M-4 -5 L-4 5 L6 0 Z" fill="#667eea"/>
    <path d="M-3.5 -4.5 L-3.5 4.5 L5.5 0 Z" fill="#764ba2" opacity="0.7"/>
    <path d="M-3 -4 L-3 4 L5 0 Z" fill="#ffffff" opacity="0.3"/>
  </g>
  
  <!-- Live indicator with pulse effect -->
  <g transform="translate(24, 8)" filter="url(#glow)">
    <circle cx="0" cy="0" r="3" fill="#ff4757"/>
    <circle cx="0" cy="0" r="2.2" fill="#ff6b7a"/>
    <circle cx="0" cy="0" r="1.5" fill="#ff8a95"/>
    <circle cx="0" cy="0" r="0.8" fill="#ffffff"/>
    
    <!-- Pulse rings -->
    <circle cx="0" cy="0" r="4" fill="none" stroke="#ff4757" stroke-width="1" opacity="0.4">
      <animate attributeName="r" values="4;7;4" dur="2s" repeatCount="indefinite"/>
      <animate attributeName="opacity" values="0.4;0;0.4" dur="2s" repeatCount="indefinite"/>
    </circle>
    <circle cx="0" cy="0" r="5" fill="none" stroke="#ff4757" stroke-width="0.8" opacity="0.2">
      <animate attributeName="r" values="5;8;5" dur="2s" repeatCount="indefinite" begin="0.5s"/>
      <animate attributeName="opacity" values="0.2;0;0.2" dur="2s" repeatCount="indefinite" begin="0.5s"/>
    </circle>
  </g>
  
  <!-- Streaming waves with animation -->
  <g opacity="0.8" transform="translate(6, 26)">
    <path d="M0 2 Q2 -1 4 2" stroke="#ffffff" stroke-width="1.5" fill="none" opacity="0.9">
      <animate attributeName="d" values="M0 2 Q2 -1 4 2;M0 1 Q2 -2 4 1;M0 2 Q2 -1 4 2" dur="1.5s" repeatCount="indefinite"/>
    </path>
    <path d="M1 3.5 Q3 0.5 5 3.5" stroke="#ffffff" stroke-width="1" fill="none" opacity="0.7">
      <animate attributeName="d" values="M1 3.5 Q3 0.5 5 3.5;M1 2.5 Q3 -0.5 5 2.5;M1 3.5 Q3 0.5 5 3.5" dur="1.5s" repeatCount="indefinite" begin="0.3s"/>
    </path>
    <path d="M2 5 Q4 2 6 5" stroke="#ffffff" stroke-width="0.8" fill="none" opacity="0.5">
      <animate attributeName="d" values="M2 5 Q4 2 6 5;M2 4 Q4 1 6 4;M2 5 Q4 2 6 5" dur="1.5s" repeatCount="indefinite" begin="0.6s"/>
    </path>
  </g>
  
  <!-- Subtle corner accents -->
  <circle cx="4" cy="4" r="1" fill="#ffffff" opacity="0.1"/>
  <circle cx="28" cy="28" r="1" fill="#ffffff" opacity="0.1"/>
</svg>
