<svg xmlns="http://www.w3.org/2000/svg" viewBox="0 0 16 16" width="16" height="16">
  <defs>
    <linearGradient id="bgGrad" x1="0%" y1="0%" x2="100%" y2="100%">
      <stop offset="0%" style="stop-color:#667eea;stop-opacity:1" />
      <stop offset="50%" style="stop-color:#764ba2;stop-opacity:1" />
      <stop offset="100%" style="stop-color:#f093fb;stop-opacity:1" />
    </linearGradient>
    <linearGradient id="playGrad" x1="0%" y1="0%" x2="100%" y2="100%">
      <stop offset="0%" style="stop-color:#ffffff;stop-opacity:1" />
      <stop offset="100%" style="stop-color:#f8f9fa;stop-opacity:1" />
    </linearGradient>
  </defs>
  
  <!-- Background with subtle border -->
  <rect width="16" height="16" rx="4" fill="url(#bgGrad)"/>
  <rect x="0.5" y="0.5" width="15" height="15" rx="3.5" fill="none" stroke="#ffffff" stroke-width="0.3" opacity="0.2"/>
  
  <!-- Main play button -->
  <g transform="translate(8, 8)">
    <!-- Play button background -->
    <circle cx="0" cy="0" r="4" fill="url(#playGrad)"/>
    
    <!-- Play triangle with gradient -->
    <path d="M-2 -2.5 L-2 2.5 L3 0 Z" fill="#667eea"/>
    <path d="M-1.5 -2 L-1.5 2 L2.5 0 Z" fill="#764ba2" opacity="0.7"/>
    <path d="M-1 -1.5 L-1 1.5 L2 0 Z" fill="#ffffff" opacity="0.3"/>
  </g>
  
  <!-- Live indicator -->
  <g transform="translate(12, 4)">
    <circle cx="0" cy="0" r="1.5" fill="#ff4757"/>
    <circle cx="0" cy="0" r="1.1" fill="#ff6b7a"/>
    <circle cx="0" cy="0" r="0.7" fill="#ff8a95"/>
    <circle cx="0" cy="0" r="0.4" fill="#ffffff"/>
  </g>
  
  <!-- Streaming waves -->
  <g opacity="0.8" transform="translate(3, 13)">
    <path d="M0 1 Q1 -0.5 2 1" stroke="#ffffff" stroke-width="0.8" fill="none" opacity="0.9"/>
    <path d="M0.5 1.8 Q1.5 0.3 2.5 1.8" stroke="#ffffff" stroke-width="0.6" fill="none" opacity="0.7"/>
  </g>
  
  <!-- Subtle corner accent -->
  <circle cx="2" cy="2" r="0.5" fill="#ffffff" opacity="0.1"/>
</svg>
